<mxfile host="app.diagrams.net" modified="2023-03-27T13:47:06.690Z" agent="Mozilla/5.0 (Macintosh; Intel Mac OS X 10_15_7) AppleWebKit/537.36 (KHTML, like Gecko) Chrome/111.0.0.0 Safari/537.36" etag="DMT8SZqLDccHyBN8nMYb" version="21.1.1" type="device">
  <diagram name="Sayfa -1" id="kTCo4Oq_-ogZ-dL5mXHI">
    <mxGraphModel dx="1363" dy="846" grid="1" gridSize="10" guides="1" tooltips="1" connect="1" arrows="1" fold="1" page="1" pageScale="1" pageWidth="827" pageHeight="1169" math="0" shadow="0">
      <root>
        <mxCell id="0" />
        <mxCell id="1" parent="0" />
        <mxCell id="3s28rE30rxpJxNo_XzpM-3" style="edgeStyle=orthogonalEdgeStyle;rounded=0;orthogonalLoop=1;jettySize=auto;html=1;exitX=1;exitY=0.5;exitDx=0;exitDy=0;" edge="1" parent="1" source="3s28rE30rxpJxNo_XzpM-1" target="3s28rE30rxpJxNo_XzpM-2">
          <mxGeometry relative="1" as="geometry" />
        </mxCell>
        <mxCell id="3s28rE30rxpJxNo_XzpM-7" style="edgeStyle=orthogonalEdgeStyle;rounded=0;orthogonalLoop=1;jettySize=auto;html=1;exitX=0.5;exitY=1;exitDx=0;exitDy=0;" edge="1" parent="1" source="3s28rE30rxpJxNo_XzpM-1">
          <mxGeometry relative="1" as="geometry">
            <mxPoint x="160" y="280" as="targetPoint" />
          </mxGeometry>
        </mxCell>
        <mxCell id="3s28rE30rxpJxNo_XzpM-1" value="API" style="whiteSpace=wrap;html=1;aspect=fixed;" vertex="1" parent="1">
          <mxGeometry x="120" y="130" width="80" height="80" as="geometry" />
        </mxCell>
        <mxCell id="3s28rE30rxpJxNo_XzpM-4" style="edgeStyle=orthogonalEdgeStyle;rounded=0;orthogonalLoop=1;jettySize=auto;html=1;exitX=1;exitY=0.5;exitDx=0;exitDy=0;" edge="1" parent="1" source="3s28rE30rxpJxNo_XzpM-2" target="3s28rE30rxpJxNo_XzpM-5">
          <mxGeometry relative="1" as="geometry">
            <mxPoint x="440" y="170" as="targetPoint" />
          </mxGeometry>
        </mxCell>
        <mxCell id="3s28rE30rxpJxNo_XzpM-2" value="LOGIN FORM" style="rounded=1;whiteSpace=wrap;html=1;" vertex="1" parent="1">
          <mxGeometry x="250" y="140" width="120" height="60" as="geometry" />
        </mxCell>
        <mxCell id="3s28rE30rxpJxNo_XzpM-6" style="edgeStyle=orthogonalEdgeStyle;rounded=0;orthogonalLoop=1;jettySize=auto;html=1;exitX=0.5;exitY=0;exitDx=0;exitDy=0;entryX=0.5;entryY=0;entryDx=0;entryDy=0;" edge="1" parent="1" source="3s28rE30rxpJxNo_XzpM-5" target="3s28rE30rxpJxNo_XzpM-1">
          <mxGeometry relative="1" as="geometry" />
        </mxCell>
        <mxCell id="3s28rE30rxpJxNo_XzpM-5" value="COGNITO" style="rounded=1;whiteSpace=wrap;html=1;" vertex="1" parent="1">
          <mxGeometry x="420" y="140" width="120" height="60" as="geometry" />
        </mxCell>
        <mxCell id="3s28rE30rxpJxNo_XzpM-12" style="edgeStyle=orthogonalEdgeStyle;rounded=0;orthogonalLoop=1;jettySize=auto;html=1;exitX=1;exitY=0.5;exitDx=0;exitDy=0;entryX=0;entryY=0.5;entryDx=0;entryDy=0;entryPerimeter=0;" edge="1" parent="1" source="3s28rE30rxpJxNo_XzpM-8" target="3s28rE30rxpJxNo_XzpM-11">
          <mxGeometry relative="1" as="geometry" />
        </mxCell>
        <mxCell id="3s28rE30rxpJxNo_XzpM-8" value="PATIENTS INFO" style="rounded=1;whiteSpace=wrap;html=1;" vertex="1" parent="1">
          <mxGeometry x="100" y="290" width="120" height="60" as="geometry" />
        </mxCell>
        <mxCell id="3s28rE30rxpJxNo_XzpM-18" style="edgeStyle=orthogonalEdgeStyle;rounded=0;orthogonalLoop=1;jettySize=auto;html=1;exitX=0.5;exitY=1;exitDx=0;exitDy=0;exitPerimeter=0;entryX=1;entryY=0.5;entryDx=0;entryDy=0;entryPerimeter=0;" edge="1" parent="1" source="3s28rE30rxpJxNo_XzpM-10" target="3s28rE30rxpJxNo_XzpM-14">
          <mxGeometry relative="1" as="geometry" />
        </mxCell>
        <mxCell id="3s28rE30rxpJxNo_XzpM-28" style="edgeStyle=orthogonalEdgeStyle;rounded=0;orthogonalLoop=1;jettySize=auto;html=1;exitX=1;exitY=0.5;exitDx=0;exitDy=0;exitPerimeter=0;entryX=0.5;entryY=0;entryDx=0;entryDy=0;entryPerimeter=0;" edge="1" parent="1" source="3s28rE30rxpJxNo_XzpM-10" target="3s28rE30rxpJxNo_XzpM-25">
          <mxGeometry relative="1" as="geometry" />
        </mxCell>
        <mxCell id="3s28rE30rxpJxNo_XzpM-10" value="" style="outlineConnect=0;dashed=0;verticalLabelPosition=bottom;verticalAlign=top;align=center;html=1;shape=mxgraph.aws3.rds;fillColor=#2E73B8;gradientColor=none;" vertex="1" parent="1">
          <mxGeometry x="580" y="130" width="72" height="81" as="geometry" />
        </mxCell>
        <mxCell id="3s28rE30rxpJxNo_XzpM-13" style="edgeStyle=orthogonalEdgeStyle;rounded=0;orthogonalLoop=1;jettySize=auto;html=1;exitX=1;exitY=0.5;exitDx=0;exitDy=0;exitPerimeter=0;entryX=0.5;entryY=1;entryDx=0;entryDy=0;entryPerimeter=0;" edge="1" parent="1" source="3s28rE30rxpJxNo_XzpM-11" target="3s28rE30rxpJxNo_XzpM-10">
          <mxGeometry relative="1" as="geometry" />
        </mxCell>
        <mxCell id="3s28rE30rxpJxNo_XzpM-11" value="" style="outlineConnect=0;dashed=0;verticalLabelPosition=bottom;verticalAlign=top;align=center;html=1;shape=mxgraph.aws3.lambda_function;fillColor=#F58534;gradientColor=none;" vertex="1" parent="1">
          <mxGeometry x="290" y="284" width="69" height="72" as="geometry" />
        </mxCell>
        <mxCell id="3s28rE30rxpJxNo_XzpM-17" style="edgeStyle=orthogonalEdgeStyle;rounded=0;orthogonalLoop=1;jettySize=auto;html=1;exitX=1;exitY=0.5;exitDx=0;exitDy=0;exitPerimeter=0;" edge="1" parent="1" source="3s28rE30rxpJxNo_XzpM-14" target="3s28rE30rxpJxNo_XzpM-10">
          <mxGeometry relative="1" as="geometry" />
        </mxCell>
        <mxCell id="3s28rE30rxpJxNo_XzpM-26" style="edgeStyle=orthogonalEdgeStyle;rounded=0;orthogonalLoop=1;jettySize=auto;html=1;exitX=0.855;exitY=0.145;exitDx=0;exitDy=0;exitPerimeter=0;" edge="1" parent="1" source="3s28rE30rxpJxNo_XzpM-14" target="3s28rE30rxpJxNo_XzpM-25">
          <mxGeometry relative="1" as="geometry" />
        </mxCell>
        <mxCell id="3s28rE30rxpJxNo_XzpM-14" value="" style="outlineConnect=0;dashed=0;verticalLabelPosition=bottom;verticalAlign=top;align=center;html=1;shape=mxgraph.aws3.lambda_function;fillColor=#F58534;gradientColor=none;" vertex="1" parent="1">
          <mxGeometry x="511" y="356" width="69" height="72" as="geometry" />
        </mxCell>
        <mxCell id="3s28rE30rxpJxNo_XzpM-16" style="edgeStyle=orthogonalEdgeStyle;rounded=0;orthogonalLoop=1;jettySize=auto;html=1;exitX=0.5;exitY=0;exitDx=0;exitDy=0;exitPerimeter=0;entryX=0;entryY=0.5;entryDx=0;entryDy=0;entryPerimeter=0;" edge="1" parent="1" source="3s28rE30rxpJxNo_XzpM-15" target="3s28rE30rxpJxNo_XzpM-14">
          <mxGeometry relative="1" as="geometry" />
        </mxCell>
        <mxCell id="3s28rE30rxpJxNo_XzpM-15" value="" style="sketch=0;points=[[0,0,0],[0.25,0,0],[0.5,0,0],[0.75,0,0],[1,0,0],[0,1,0],[0.25,1,0],[0.5,1,0],[0.75,1,0],[1,1,0],[0,0.25,0],[0,0.5,0],[0,0.75,0],[1,0.25,0],[1,0.5,0],[1,0.75,0]];outlineConnect=0;fontColor=#232F3E;gradientColor=#FF4F8B;gradientDirection=north;fillColor=#BC1356;strokeColor=#ffffff;dashed=0;verticalLabelPosition=bottom;verticalAlign=top;align=center;html=1;fontSize=12;fontStyle=0;aspect=fixed;shape=mxgraph.aws4.resourceIcon;resIcon=mxgraph.aws4.eventbridge;" vertex="1" parent="1">
          <mxGeometry x="400" y="440" width="78" height="78" as="geometry" />
        </mxCell>
        <mxCell id="3s28rE30rxpJxNo_XzpM-34" style="edgeStyle=orthogonalEdgeStyle;rounded=0;orthogonalLoop=1;jettySize=auto;html=1;exitX=1;exitY=0.5;exitDx=0;exitDy=0;exitPerimeter=0;entryX=0;entryY=0.25;entryDx=0;entryDy=0;" edge="1" parent="1" source="3s28rE30rxpJxNo_XzpM-20" target="3s28rE30rxpJxNo_XzpM-32">
          <mxGeometry relative="1" as="geometry" />
        </mxCell>
        <mxCell id="3s28rE30rxpJxNo_XzpM-35" style="edgeStyle=orthogonalEdgeStyle;rounded=0;orthogonalLoop=1;jettySize=auto;html=1;exitX=0.5;exitY=0;exitDx=0;exitDy=0;exitPerimeter=0;entryX=0;entryY=0.5;entryDx=0;entryDy=0;" edge="1" parent="1" source="3s28rE30rxpJxNo_XzpM-20" target="3s28rE30rxpJxNo_XzpM-23">
          <mxGeometry relative="1" as="geometry" />
        </mxCell>
        <mxCell id="3s28rE30rxpJxNo_XzpM-36" style="edgeStyle=orthogonalEdgeStyle;rounded=0;orthogonalLoop=1;jettySize=auto;html=1;exitX=0.5;exitY=1;exitDx=0;exitDy=0;exitPerimeter=0;entryX=0;entryY=0.75;entryDx=0;entryDy=0;" edge="1" parent="1" source="3s28rE30rxpJxNo_XzpM-20" target="3s28rE30rxpJxNo_XzpM-33">
          <mxGeometry relative="1" as="geometry" />
        </mxCell>
        <mxCell id="3s28rE30rxpJxNo_XzpM-20" value="" style="sketch=0;points=[[0,0,0],[0.25,0,0],[0.5,0,0],[0.75,0,0],[1,0,0],[0,1,0],[0.25,1,0],[0.5,1,0],[0.75,1,0],[1,1,0],[0,0.25,0],[0,0.5,0],[0,0.75,0],[1,0.25,0],[1,0.5,0],[1,0.75,0]];outlineConnect=0;fontColor=#232F3E;gradientColor=#FF4F8B;gradientDirection=north;fillColor=#BC1356;strokeColor=#ffffff;dashed=0;verticalLabelPosition=bottom;verticalAlign=top;align=center;html=1;fontSize=12;fontStyle=0;aspect=fixed;shape=mxgraph.aws4.resourceIcon;resIcon=mxgraph.aws4.sns;" vertex="1" parent="1">
          <mxGeometry x="900" y="207" width="78" height="78" as="geometry" />
        </mxCell>
        <mxCell id="3s28rE30rxpJxNo_XzpM-23" value="Email" style="rounded=1;whiteSpace=wrap;html=1;" vertex="1" parent="1">
          <mxGeometry x="1010" y="170" width="120" height="30" as="geometry" />
        </mxCell>
        <mxCell id="3s28rE30rxpJxNo_XzpM-27" style="edgeStyle=orthogonalEdgeStyle;rounded=0;orthogonalLoop=1;jettySize=auto;html=1;exitX=0.5;exitY=0;exitDx=0;exitDy=0;exitPerimeter=0;" edge="1" parent="1" source="3s28rE30rxpJxNo_XzpM-25" target="3s28rE30rxpJxNo_XzpM-10">
          <mxGeometry relative="1" as="geometry" />
        </mxCell>
        <mxCell id="3s28rE30rxpJxNo_XzpM-29" style="edgeStyle=orthogonalEdgeStyle;rounded=0;orthogonalLoop=1;jettySize=auto;html=1;exitX=1;exitY=0.5;exitDx=0;exitDy=0;exitPerimeter=0;" edge="1" parent="1" source="3s28rE30rxpJxNo_XzpM-25" target="3s28rE30rxpJxNo_XzpM-20">
          <mxGeometry relative="1" as="geometry" />
        </mxCell>
        <mxCell id="3s28rE30rxpJxNo_XzpM-25" value="" style="outlineConnect=0;dashed=0;verticalLabelPosition=bottom;verticalAlign=top;align=center;html=1;shape=mxgraph.aws3.lambda_function;fillColor=#F58534;gradientColor=none;" vertex="1" parent="1">
          <mxGeometry x="700" y="210" width="69" height="72" as="geometry" />
        </mxCell>
        <mxCell id="3s28rE30rxpJxNo_XzpM-30" value="Which patient need concerning" style="text;html=1;strokeColor=none;fillColor=none;align=center;verticalAlign=middle;whiteSpace=wrap;rounded=0;" vertex="1" parent="1">
          <mxGeometry x="480" y="440" width="140" height="30" as="geometry" />
        </mxCell>
        <mxCell id="3s28rE30rxpJxNo_XzpM-31" value="Which doctor need concerning" style="text;html=1;strokeColor=none;fillColor=none;align=center;verticalAlign=middle;whiteSpace=wrap;rounded=0;" vertex="1" parent="1">
          <mxGeometry x="750" y="284" width="140" height="30" as="geometry" />
        </mxCell>
        <mxCell id="3s28rE30rxpJxNo_XzpM-32" value="Phone-1" style="rounded=1;whiteSpace=wrap;html=1;arcSize=50;" vertex="1" parent="1">
          <mxGeometry x="1010" y="234.5" width="120" height="30" as="geometry" />
        </mxCell>
        <mxCell id="3s28rE30rxpJxNo_XzpM-33" value="Phone-2" style="rounded=1;whiteSpace=wrap;html=1;arcSize=50;" vertex="1" parent="1">
          <mxGeometry x="1010" y="290" width="120" height="30" as="geometry" />
        </mxCell>
      </root>
    </mxGraphModel>
  </diagram>
</mxfile>
